<?xml version="1.0" encoding="UTF-8" standalone="no"?>
<svg
   xmlns:dc="http://purl.org/dc/elements/1.1/"
   xmlns:cc="http://creativecommons.org/ns#"
   xmlns:rdf="http://www.w3.org/1999/02/22-rdf-syntax-ns#"
   xmlns:svg="http://www.w3.org/2000/svg"
   xmlns="http://www.w3.org/2000/svg"
   xmlns:sodipodi="http://sodipodi.sourceforge.net/DTD/sodipodi-0.dtd"
   xmlns:inkscape="http://www.inkscape.org/namespaces/inkscape"
   height="512px"
   id="Layer_1"
   style="enable-background:new 0 0 512 512;"
   version="1.1"
   viewBox="0 0 512 512"
   width="512px"
   xml:space="preserve"
   sodipodi:docname="icon.svg"
   inkscape:version="0.92.4 5da689c313, 2019-01-14"><metadata
     id="metadata9"><rdf:RDF><cc:Work
         rdf:about=""><dc:format>image/svg+xml</dc:format><dc:type
           rdf:resource="http://purl.org/dc/dcmitype/StillImage" /></cc:Work></rdf:RDF></metadata><defs
     id="defs7" /><sodipodi:namedview
     pagecolor="#ffffff"
     bordercolor="#666666"
     borderopacity="1"
     objecttolerance="10"
     gridtolerance="10"
     guidetolerance="10"
     inkscape:pageopacity="0"
     inkscape:pageshadow="2"
     inkscape:window-width="1920"
     inkscape:window-height="1021"
     id="namedview5"
     showgrid="false"
     inkscape:zoom="0.4609375"
     inkscape:cx="144.27119"
     inkscape:cy="256"
     inkscape:window-x="0"
     inkscape:window-y="25"
     inkscape:window-maximized="1"
     inkscape:current-layer="Layer_1" /><g
     id="g894"
     transform="translate(-2.0307892,16.209236)"><path
       d="m 423.86852,74.864559 c -17.34629,-17.346349 -45.47024,-17.346349 -62.81336,0 -13.8385,13.83528 -16.60363,34.519081 -8.36287,51.129131 l -96.75056,96.75374 c -16.61006,-8.23751 -37.29386,-5.47559 -51.13235,8.35969 -17.34635,17.34635 -17.34313,45.47026 0,62.81662 17.34957,17.34634 45.47348,17.33991 62.81983,-0.003 13.83528,-13.83528 16.5972,-34.51908 8.35648,-51.13235 l 96.75055,-96.75049 c 16.61321,8.23751 37.29379,5.4756 51.12912,-8.3629 17.34637,-17.33671 17.34637,-45.463841 0,-62.810191 z"
       id="path880"
       inkscape:connector-curvature="0"
       style="fill:#424143;stroke:none;stroke-width:40.59567642;stroke-miterlimit:4;stroke-dasharray:none;stroke-opacity:1;paint-order:stroke fill markers" /><path
       inkscape:connector-curvature="0"
       id="path2"
       d="m 223.46284,105.87107 c -11.04203,0 -19.80942,9.33668 -19.80942,20.37871 v 12.34203 c 0,9.98654 -8.68748,18.42981 -19.07997,18.42981 -5.19625,0 -9.98781,-2.19249 -13.47903,-6.00848 l -7.87493,-7.79405 c -3.57242,-3.65361 -8.84986,-5.6834 -14.20849,-5.6834 -5.35863,0 -10.55487,2.11098 -14.20848,5.6834 l -18.26806,17.86209 c -7.79437,7.79437 -7.79437,20.54205 0,28.25523 l 7.63231,7.63072 c 4.05956,3.65361 6.33197,8.52541 6.33197,13.72165 0,10.3925 -8.44295,18.9991 -18.51068,18.9991 H 99.646027 c -11.123215,0 -20.459586,8.6881 -20.459586,19.73013 v 12.34045 12.34045 c 0,10.96083 9.336371,19.73013 20.459586,19.73013 h 12.342033 c 10.06773,0 18.51068,8.6878 18.51068,18.9991 0,5.19624 -2.27241,10.06804 -6.33197,13.72165 l -7.63231,7.54985 c -7.79437,7.79437 -7.79437,20.54204 0,28.25522 l 18.10631,18.02385 c 3.57242,3.65361 8.84985,5.68339 14.20848,5.68339 5.35863,0 10.55488,-2.11097 14.20849,-5.68339 l 7.87493,-7.79405 c 3.41003,-3.816 8.2812,-6.00848 13.47744,-6.00848 10.3925,0 19.07997,8.44485 19.07997,18.43139 v 12.34045 c 0,10.96083 8.76867,20.37871 19.89188,20.37871 h 24.68249 c 11.04203,0 19.81101,-9.33669 19.81101,-20.37871 v -12.34045 c 0,-9.98654 8.68747,-18.43139 19.07997,-18.43139 5.19624,0 10.06772,2.27431 13.80253,6.25268 l 7.6323,7.63072 c 3.65361,3.57242 8.84986,5.6834 14.20849,5.6834 5.35862,0 10.55487,-2.11098 14.20848,-5.6834 l 18.10472,-18.02384 c 7.79437,-7.79437 7.79437,-20.54173 0,-28.3361 l -7.9558,-7.79406 c -3.89718,-3.49122 -6.08935,-8.28151 -6.08935,-13.39657 0,-10.39249 8.44295,-18.99909 18.51068,-18.99909 h 12.34203 c 11.04203,0 18.91664,-8.68653 18.91664,-19.72855 v -12.42291 -12.34045 c 0.16238,-11.04203 -7.71286,-19.73013 -18.75489,-19.73013 h -12.34045 c -10.06773,0 -18.51226,-8.68779 -18.51226,-18.9991 0,-1.70104 0.24022,-3.34805 0.69298,-4.91905 l -42.79038,41.0492 c 1.13026,4.80048 1.74593,9.79788 1.74593,14.93953 0,35.80539 -28.98531,64.95308 -64.95308,64.95308 -35.96777,0 -64.95308,-29.14769 -64.95308,-64.95308 0,-35.80539 28.98531,-64.95308 64.95308,-64.95308 4.04567,0 8.00167,0.3712 11.83935,1.07673 l 42.81416,-41.0714 c -1.06428,0.1901 -2.15279,0.29178 -3.26034,0.29178 -10.39249,0 -19.07996,-8.44327 -19.07996,-18.4298 v -12.42291 c 0,-10.96084 -8.84986,-20.37871 -19.89188,-20.37871 z"
       style="fill:#6ba43a;fill-opacity:1;stroke-width:0.81191349" /></g></svg>